[Header]
FileType HTR
DataType HTRS
FileVersion 1
NumSegments 64
NumFrames 4
DataFrameRate 30
EulerRotationOrder ZYX
CalibrationUnits mm
RotationUnits Degrees
GlobalAxisofGravity Y
BoneLengthAxis Y
ScaleFactor 1.0
[SegmentNames&Hierarchy]
Hips	GLOBAL
Spine	Hips
Spine1	Spine
Spine2	Spine1
Neck	Spine2
Head	Neck
LeftEye	Head
RightEye	Head
LeftShoulder	Spine2
LeftArm	LeftShoulder
LeftForeArm	LeftArm
LeftHand	LeftForeArm
LeftHandThumb1	LeftHand
LeftHandThumb2	LeftHandThumb1
LeftHandThumb3	LeftHandThumb2
LeftHandThumb4	LeftHandThumb3
LeftHandIndex1	LeftHand
LeftHandIndex2	LeftHandIndex1
LeftHandIndex3	LeftHandIndex2
LeftHandIndex4	LeftHandIndex3
LeftHandMiddle1	LeftHand
LeftHandMiddle2	LeftHandMiddle1
LeftHandMiddle3	LeftHandMiddle2
LeftHandMiddle4	LeftHandMiddle3
LeftHandRing1	LeftHand
LeftHandRing2	LeftHandRing1
LeftHandRing3	LeftHandRing2
LeftHandRing4	LeftHandRing3
LeftHandPinky1	LeftHand
LeftHandPinky2	LeftHandPinky1
LeftHandPinky3	LeftHandPinky2
LeftHandPinky4	LeftHandPinky3
RightShoulder	Spine2
RightArm	RightShoulder
RightForeArm	RightArm
RightHand	RightForeArm
RightHandPinky1	RightHand
RightHandPinky2	RightHandPinky1
RightHandPinky3	RightHandPinky2
RightHandPinky4	RightHandPinky3
RightHandRing1	RightHand
RightHandRing2	RightHandRing1
RightHandRing3	RightHandRing2
RightHandRing4	RightHandRing3
RightHandMiddle1	RightHand
RightHandMiddle2	RightHandMiddle1
RightHandMiddle3	RightHandMiddle2
RightHandMiddle4	RightHandMiddle3
RightHandIndex1	RightHand
RightHandIndex2	RightHandIndex1
RightHandIndex3	RightHandIndex2
RightHandIndex4	RightHandIndex3
RightHandThumb1	RightHand
RightHandThumb2	RightHandThumb1
RightHandThumb3	RightHandThumb2
RightHandThumb4	RightHandThumb3
LeftUpLeg	Hips
LeftLeg	LeftUpLeg
LeftFoot	LeftLeg
LeftToeBase	LeftFoot
RightUpLeg	Hips
RightLeg	RightUpLeg
RightFoot	RightLeg
RightToeBase	RightFoot
[BasePosition]
Hips	0	0	0	0	0	0	1
Spine	0	0	0	0	0	0	1
Spine1	0	0	0	0	0	0	1
Spine2	0	0	0	0	0	0	1
Neck	0	0	0	0	0	0	1
Head	0	0	0	0	0	0	1
LeftEye	0	0	0	0	0	0	1
RightEye	0	0	0	0	0	0	1
LeftShoulder	0	0	0	0	0	0	1
LeftArm	0	0	0	0	0	0	1
LeftForeArm	0	0	0	0	0	0	1
LeftHand	0	0	0	0	0	0	1
LeftHandThumb1	0	0	0	0	0	0	1
LeftHandThumb2	0	0	0	0	0	0	1
LeftHandThumb3	0	0	0	0	0	0	1
LeftHandThumb4	0	0	0	0	0	0	1
LeftHandIndex1	0	0	0	0	0	0	1
LeftHandIndex2	0	0	0	0	0	0	1
LeftHandIndex3	0	0	0	0	0	0	1
LeftHandIndex4	0	0	0	0	0	0	1
LeftHandMiddle1	0	0	0	0	0	0	1
LeftHandMiddle2	0	0	0	0	0	0	1
LeftHandMiddle3	0	0	0	0	0	0	1
LeftHandMiddle4	0	0	0	0	0	0	1
LeftHandRing1	0	0	0	0	0	0	1
LeftHandRing2	0	0	0	0	0	0	1
LeftHandRing3	0	0	0	0	0	0	1
LeftHandRing4	0	0	0	0	0	0	1
LeftHandPinky1	0	0	0	0	0	0	1
LeftHandPinky2	0	0	0	0	0	0	1
LeftHandPinky3	0	0	0	0	0	0	1
LeftHandPinky4	0	0	0	0	0	0	1
RightShoulder	0	0	0	0	0	0	1
RightArm	0	0	0	0	0	0	1
RightForeArm	0	0	0	0	0	0	1
RightHand	0	0	0	0	0	0	1
RightHandPinky1	0	0	0	0	0	0	1
RightHandPinky2	0	0	0	0	0	0	1
RightHandPinky3	0	0	0	0	0	0	1
RightHandPinky4	0	0	0	0	0	0	1
RightHandRing1	0	0	0	0	0	0	1
RightHandRing2	0	0	0	0	0	0	1
RightHandRing3	0	0	0	0	0	0	1
RightHandRing4	0	0	0	0	0	0	1
RightHandMiddle1	0	0	0	0	0	0	1
RightHandMiddle2	0	0	0	0	0	0	1
RightHandMiddle3	0	0	0	0	0	0	1
RightHandMiddle4	0	0	0	0	0	0	1
RightHandIndex1	0	0	0	0	0	0	1
RightHandIndex2	0	0	0	0	0	0	1
RightHandIndex3	0	0	0	0	0	0	1
RightHandIndex4	0	0	0	0	0	0	1
RightHandThumb1	0	0	0	0	0	0	1
RightHandThumb2	0	0	0	0	0	0	1
RightHandThumb3	0	0	0	0	0	0	1
RightHandThumb4	0	0	0	0	0	0	1
LeftUpLeg	0	0	0	0	0	0	1
LeftLeg	0	0	0	0	0	0	1
LeftFoot	0	0	0	0	0	0	1
LeftToeBase	0	0	0	0	0	0	1
RightUpLeg	0	0	0	0	0	0	1
RightLeg	0	0	0	0	0	0	1
RightFoot	0	0	0	0	0	0	1
RightToeBase	0	0	0	0	0	0	1
[Hips]
186	39.91689682	1026.585571	125.8900528	0.4667506218	-3.416542768	-7.845812798	1.0
187	8.60627079	1034.49939	135.0099792	1.276570797	-1.30242455	-6.624894142	1.0
188	-21.40047073	1029.094971	143.0366058	1.764991164	1.057784319	-5.531428814	1.0
189	-48.96797943	1014.901672	146.0154114	1.645149469	3.52682662	-5.399456978	1.0
[Spine]
186	0	101.8159943	1.315000057	3.846057177	-5.11857605	1.659468889	1.0
187	0	101.8159943	1.315000057	2.232943773	-5.241454124	-0.8683214784	1.0
188	0	101.8159943	1.315000057	1.156560421	-5.471702099	-2.410695553	1.0
189	0	101.8159943	1.315000057	1.005745173	-5.760552406	-2.147314548	1.0
[Spine1]
186	0	100.8349991	-10.00800037	2.834237337	-0.7609444261	0.633069396	1.0
187	0	100.8349991	-10.00800037	1.666457891	-0.8070720434	0.2879127264	1.0
188	0	100.8349991	-10.00800037	1.030148745	-0.8505137563	0.2488514334	1.0
189	0	100.8349991	-10.00800037	1.110207558	-0.8934853673	0.4585502744	1.0
[Spine2]
186	0	91	-13.73399925	2.824764252	-0.7440749407	0.6051117778	1.0
187	0	91	-13.73399925	1.653648853	-0.8007436991	0.2731531262	1.0
188	0	91	-13.73399925	1.017462492	-0.8485844135	0.2405394763	1.0
189	0	91	-13.73399925	1.100082159	-0.8906928897	0.4471640289	1.0
[Neck]
186	0	166.7169952	-25.16200066	0.3165380359	-4.625921249	8.128793716	1.0
187	0	166.7169952	-25.16200066	0.7008616328	-5.372079372	11.08748627	1.0
188	0	166.7169952	-25.16200066	0.3400376439	-5.4435215	12.01002693	1.0
189	0	166.7169952	-25.16200066	-0.2629588544	-4.781227589	10.99402237	1.0
[Head]
186	0	96.17900085	16.84999847	-8.175040245	-12.64326096	4.100141048	1.0
187	0	96.17900085	16.84999847	-3.613898277	-12.33541203	2.050842285	1.0
188	0	96.17900085	16.84999847	-0.6796372533	-11.47711277	0.7204404473	1.0
189	0	96.17900085	16.84999847	-0.6036971807	-9.58040905	0.3403532505	1.0
[LeftEye]
186	30.6760006	64.09500122	92.83599854	0	0	0	1.0
187	30.6760006	64.09500122	92.83599854	0	0	0	1.0
188	30.6760006	64.09500122	92.83599854	0	0	0	1.0
189	30.6760006	64.09500122	92.83599854	0	0	0	1.0
[RightEye]
186	-30.6760006	64.09500122	92.83499908	0	0	0	1.0
187	-30.6760006	64.09500122	92.83499908	0	0	0	1.0
188	-30.6760006	64.09500122	92.83499908	0	0	0	1.0
189	-30.6760006	64.09500122	92.83499908	0	0	0	1.0
[LeftShoulder]
186	45.70400238	109.4599991	-26.28000069	2.565244436	-24.06270981	1.798904538	1.0
187	45.70400238	109.4599991	-26.28000069	3.004593372	-24.9009037	-0.6297181249	1.0
188	45.70400238	109.4599991	-26.28000069	3.46399641	-24.83287048	-3.059873581	1.0
189	45.70400238	109.4599991	-26.28000069	3.751872063	-24.05620766	-4.536981106	1.0
[LeftArm]
186	105.923996	-5.24600029	-22.32099915	6.366161823	-56.25672913	-9.976336479	1.0
187	105.923996	-5.24600029	-22.32099915	10.55378628	-53.91214371	-7.799491882	1.0
188	105.923996	-5.24600029	-22.32099915	13.73548508	-51.07112122	-7.729210854	1.0
189	105.923996	-5.24600029	-22.32099915	15.76583576	-47.92812729	-10.52079964	1.0
[LeftForeArm]
186	278.414978	-0.0009999999311	0	-1.525878906e-05	-98.36779785	-0.0001831054688	1.0
187	278.414978	-0.0009999999311	0	-2.563520184e-06	-98.45903015	-0.0001958007342	1.0
188	278.414978	-0.0009999999311	0	7.324213698e-07	-100.4755859	-0.0001990966848	1.0
189	278.414978	-0.0009999999311	0	7.324214266e-07	-102.7658615	-0.0001998290973	1.0
[LeftHand]
186	283.2879944	0	0	16.68074989	-14.16908646	-13.90133667	1.0
187	283.2879944	0	0	9.770959854	-13.83661366	-13.91110229	1.0
188	283.2879944	0	0	5.67683506	-13.49288845	-14.83492088	1.0
189	283.2879944	0	0	6.218069553	-13.46851826	-16.26022148	1.0
[LeftHandThumb1]
186	24.6609993	-15.75	26.8239994	-1.441466451	-8.319257736	8.653961182	1.0
187	24.6609993	-15.75	26.8239994	-1.441469073	-8.319260597	8.653963089	1.0
188	24.6609993	-15.75	26.8239994	-1.441466808	-8.319263458	8.653964043	1.0
189	24.6609993	-15.75	26.8239994	-1.441464186	-8.319267273	8.653964043	1.0
[LeftHandThumb2]
186	32.29800034	-18.64699936	18.64699936	-0.9986060858	48.03615189	-30.10181618	1.0
187	32.29800034	-18.64699936	18.64699936	-0.9986047745	48.03616333	-30.1018219	1.0
188	32.29800034	-18.64699936	18.64699936	-0.9985997677	48.03615952	-30.10182953	1.0
189	32.29800034	-18.64699936	18.64699936	-0.998601079	48.03615952	-30.1018219	1.0
[LeftHandThumb3]
186	26.52600098	-15.31499958	15.31499958	7.522171974	50.02408218	24.38755798	1.0
187	26.52600098	-15.31499958	15.31499958	7.522171021	50.02409363	24.3875618	1.0
188	26.52600098	-15.31499958	15.31499958	7.522172928	50.024086	24.38755226	1.0
189	26.52600098	-15.31499958	15.31499958	7.522173882	50.024086	24.38754845	1.0
[LeftHandThumb4]
186	19.54599953	-11.28499985	11.28499985	0	0	0	1.0
187	19.54599953	-11.28499985	11.28499985	0	0	0	1.0
188	19.54599953	-11.28499985	11.28499985	0	0	0	1.0
189	19.54599953	-11.28499985	11.28499985	0	0	0	1.0
[LeftHandIndex1]
186	91.09299469	-5.170999527	22.60099792	-1.70693171	9.272190094	-79.1252594	1.0
187	91.09299469	-5.170999527	22.60099792	-1.706937909	9.272185326	-79.12530518	1.0
188	91.09299469	-5.170999527	22.60099792	-1.706930518	9.272186279	-79.12528229	1.0
189	91.09299469	-5.170999527	22.60099792	-1.706925988	9.272184372	-79.12527466	1.0
[LeftHandIndex2]
186	36.76399994	0	0	-5.084238052	5.778057575	-82.67964935	1.0
187	36.76399994	0	0	-5.084243298	5.778060913	-82.67964172	1.0
188	36.76399994	0	0	-5.08423996	5.77806282	-82.67964172	1.0
189	36.76399994	0	0	-5.084239006	5.778060913	-82.67962646	1.0
[LeftHandIndex3]
186	28.83100128	0	0	-6.44968462	5.79175806	-96.16447449	1.0
187	28.83100128	0	0	-6.449683666	5.791759014	-96.16448975	1.0
188	28.83100128	0	0	-6.449681282	5.791755676	-96.16448212	1.0
189	28.83100128	0	0	-6.449677467	5.791755676	-96.16448212	1.0
[LeftHandIndex4]
186	23.92700005	0	0	0	0	0	1.0
187	23.92700005	0	0	0	0	0	1.0
188	23.92700005	0	0	0	0	0	1.0
189	23.92700005	0	0	0	0	0	1.0
[LeftHandMiddle1]
186	95.33399963	0	0	-6.494760036	5.273264885	-74.30393219	1.0
187	95.33399963	0	0	-6.494764328	5.273260593	-74.30394745	1.0
188	95.33399963	0	0	-6.494760036	5.273256779	-74.30393982	1.0
189	95.33399963	0	0	-6.494759083	5.273256779	-74.30395508	1.0
[LeftHandMiddle2]
186	36.98199844	0	0	-7.583499432	5.554388046	-107.596611	1.0
187	36.98199844	0	0	-7.583500385	5.554381371	-107.596611	1.0
188	36.98199844	0	0	-7.583499432	5.554385185	-107.5966034	1.0
189	36.98199844	0	0	-7.583498478	5.554389954	-107.5966034	1.0
[LeftHandMiddle3]
186	29.50900078	0	0	-4.044085503	5.547130108	-72.16719818	1.0
187	29.50900078	0	0	-4.044091225	5.54712677	-72.16720581	1.0
188	29.50900078	0	0	-4.04408884	5.547126293	-72.16722107	1.0
189	29.50900078	0	0	-4.044085026	5.54712677	-72.16722107	1.0
[LeftHandMiddle4]
186	28.3390007	0	0	0	0	0	1.0
187	28.3390007	0	0	0	0	0	1.0
188	28.3390007	0	0	0	0	0	1.0
189	28.3390007	0	0	0	0	0	1.0
[LeftHandRing1]
186	91.04499817	-0.4390000105	-18.65100098	-7.093597889	2.507957697	-79.7666626	1.0
187	91.04499817	-0.4390000105	-18.65100098	-7.093595982	2.507953644	-79.76667786	1.0
188	91.04499817	-0.4390000105	-18.65100098	-7.093592644	2.507954121	-79.76667023	1.0
189	91.04499817	-0.4390000105	-18.65100098	-7.09359026	2.507953405	-79.76667023	1.0
[LeftHandRing2]
186	31.54000092	0	0	-6.249153137	5.809813976	-94.18070221	1.0
187	31.54000092	0	0	-6.249156475	5.809813976	-94.18070984	1.0
188	31.54000092	0	0	-6.249156475	5.80981636	-94.18067932	1.0
189	31.54000092	0	0	-6.249155521	5.809815407	-94.18067932	1.0
[LeftHandRing3]
186	29.37700081	0	0	-2.898617268	5.038872719	-59.79805374	1.0
187	29.37700081	0	0	-2.898618937	5.038872242	-59.79808426	1.0
188	29.37700081	0	0	-2.898617268	5.038868904	-59.79806519	1.0
189	29.37700081	0	0	-2.898618221	5.038868904	-59.79804993	1.0
[LeftHandRing4]
186	26.47500038	0	0	0	0	0	1.0
187	26.47500038	0	0	0	0	0	1.0
188	26.47500038	0	0	0	0	0	1.0
189	26.47500038	0	0	0	0	0	1.0
[LeftHandPinky1]
186	80.77799988	-4.887000084	-38.06099701	-15.74281883	5.236328125	-84.96305847	1.0
187	80.77799988	-4.887000084	-38.06099701	-15.74281883	5.236323833	-84.96305847	1.0
188	80.77799988	-4.887000084	-38.06099701	-15.74281693	5.236323357	-84.9630661	1.0
189	80.77799988	-4.887000084	-38.06099701	-15.74281216	5.236326218	-84.9630661	1.0
[LeftHandPinky2]
186	36	0	0	-2.465524197	4.761475563	-54.73119354	1.0
187	36	0	0	-2.46552515	4.761468887	-54.73119736	1.0
188	36	0	0	-2.46552372	4.761468887	-54.73120117	1.0
189	36	0	0	-2.46552515	4.761471272	-54.73120117	1.0
[LeftHandPinky3]
186	21.14200211	0	0	-4.929655075	5.756194592	-81.14134216	1.0
187	21.14200211	0	0	-4.92966032	5.756196976	-81.14134979	1.0
188	21.14200211	0	0	-4.929658413	5.756194115	-81.14134216	1.0
189	21.14200211	0	0	-4.929654598	5.756194592	-81.14134216	1.0
[LeftHandPinky4]
186	19.75699997	0	0	0	0	0	1.0
187	19.75699997	0	0	0	0	0	1.0
188	19.75699997	0	0	0	0	0	1.0
189	19.75699997	0	0	0	0	0	1.0
[RightShoulder]
186	-45.70000076	109.4620056	-26.28000069	-23.93252563	4.262113571	-12.57764053	1.0
187	-45.70000076	109.4620056	-26.28000069	-23.14762115	-1.829767823	-11.54639244	1.0
188	-45.70000076	109.4620056	-26.28000069	-22.54704285	-7.544602394	-11.91875839	1.0
189	-45.70000076	109.4620056	-26.28000069	-22.30870247	-10.96552372	-12.96256924	1.0
[RightArm]
186	-105.9280014	-5.248000145	-22.32099915	-29.86532211	10.18711567	-8.005725861	1.0
187	-105.9280014	-5.248000145	-22.32099915	-1.159115195	28.33984756	-8.328343391	1.0
188	-105.9280014	-5.248000145	-22.32099915	21.29075241	33.35984039	-4.84037447	1.0
189	-105.9280014	-5.248000145	-22.32099915	30.96095657	27.60254288	-4.125618458	1.0
[RightForeArm]
186	-278.414978	0	0	-7.621188729e-07	37.8563118	1.942564268e-06	1.0
187	-278.414978	0	0	-2.831764277e-06	4.415659904	7.004999134e-06	1.0
188	-278.414978	0	0	-6.881708146e-07	2.761573553	-2.221832574e-06	1.0
189	-278.414978	0	0	5.136717846e-06	25.89927101	-8.164789733e-07	1.0
[RightHand]
186	-283.2879944	0	0.0009999999311	-37.17580795	-5.712239742	-36.50464249	1.0
187	-283.2879944	0	0.0009999999311	-41.25014877	7.750229359	-21.81939507	1.0
188	-283.2879944	0	0.0009999999311	-18.97717667	18.54110909	-8.116530418	1.0
189	-283.2879944	0	0.0009999999311	6.360816956	20.12301064	-3.437263012	1.0
[RightHandPinky1]
186	-80.76699829	-4.885000229	-38.06000137	-15.18225193	-1.629515886	97.58633423	1.0
187	-80.76699829	-4.885000229	-38.06000137	-15.18224716	-1.629507303	97.58633423	1.0
188	-80.76699829	-4.885000229	-38.06000137	-15.18223763	-1.629498839	97.58634186	1.0
189	-80.76699829	-4.885000229	-38.06000137	-15.18223858	-1.629492402	97.58634186	1.0
[RightHandPinky2]
186	-36	0	0.0009999999311	-1.749804497	-3.626888752	51.51878357	1.0
187	-36	0	0.0009999999311	-1.749811292	-3.626893759	51.51878357	1.0
188	-36	0	0.0009999999311	-1.74982214	-3.626901388	51.51878357	1.0
189	-36	0	0.0009999999311	-1.749814272	-3.626906157	51.51878357	1.0
[RightHandPinky3]
186	-21.14200211	0	0	-1.867236853	-3.717074633	53.33226013	1.0
187	-21.14200211	0	0	-1.867233157	-3.717075586	53.3322525	1.0
188	-21.14200211	0	0	-1.867236733	-3.717078924	53.33224487	1.0
189	-21.14200211	0	0	-1.867236853	-3.717079878	53.33224869	1.0
[RightHandPinky4]
186	-19.75699997	0	0	0	0	0	1.0
187	-19.75699997	0	0	0	0	0	1.0
188	-19.75699997	0	0	0	0	0	1.0
189	-19.75699997	0	0	0	0	0	1.0
[RightHandRing1]
186	-91.03599548	-0.4390000105	-18.65100098	-7.065043926	-0.7973999381	91.91008759	1.0
187	-91.03599548	-0.4390000105	-18.65100098	-7.065032959	-0.7973988652	91.91007996	1.0
188	-91.03599548	-0.4390000105	-18.65100098	-7.065032959	-0.7973997593	91.91007996	1.0
189	-91.03599548	-0.4390000105	-18.65100098	-7.065032005	-0.7973956466	91.91007996	1.0
[RightHandRing2]
186	-31.54000092	0	0	-4.327737331	-4.620634079	86.24685669	1.0
187	-31.54000092	0	0	-4.32774353	-4.620628834	86.24687958	1.0
188	-31.54000092	0	0	-4.32775116	-4.620624542	86.24687195	1.0
189	-31.54000092	0	0	-4.327754021	-4.620615482	86.24685669	1.0
[RightHandRing3]
186	-29.37700081	0	0	-1.156990767	-3.063925982	41.3663559	1.0
187	-29.37700081	0	0	-1.156974792	-3.063933611	41.36634827	1.0
188	-29.37700081	0	0	-1.156963825	-3.063928604	41.36634064	1.0
189	-29.37700081	0	0	-1.156959057	-3.063931465	41.36633682	1.0
[RightHandRing4]
186	-26.47500038	0	0	0	0	0	1.0
187	-26.47500038	0	0	0	0	0	1.0
188	-26.47500038	0	0	0	0	0	1.0
189	-26.47500038	0	0	0	0	0	1.0
[RightHandMiddle1]
186	-95.32500458	0	0	-5.49019289	-4.098511219	73.57291412	1.0
187	-95.32500458	0	0	-5.490197182	-4.098495007	73.57289124	1.0
188	-95.32500458	0	0	-5.490192413	-4.098492146	73.57289124	1.0
189	-95.32500458	0	0	-5.490195751	-4.098493576	73.57289124	1.0
[RightHandMiddle2]
186	-36.98199844	0	0	-6.026573658	-4.415481567	107.5651169	1.0
187	-36.98199844	0	0	-6.026577473	-4.415502548	107.5651093	1.0
188	-36.98199844	0	0	-6.026583672	-4.415501595	107.5651016	1.0
189	-36.98199844	0	0	-6.026578903	-4.415494442	107.5651016	1.0
[RightHandMiddle3]
186	-29.50900078	0	0	-1.287472606	-3.207872629	43.7522583	1.0
187	-29.50900078	0	0	-1.287471056	-3.207851648	43.75226212	1.0
188	-29.50900078	0	0	-1.287468076	-3.207853317	43.7522583	1.0
189	-29.50900078	0	0	-1.287469268	-3.207861423	43.7522583	1.0
[RightHandMiddle4]
186	-28.3390007	0	0.0009999999311	0	0	0	1.0
187	-28.3390007	0	0.0009999999311	0	0	0	1.0
188	-28.3390007	0	0.0009999999311	0	0	0	1.0
189	-28.3390007	0	0.0009999999311	0	0	0	1.0
[RightHandIndex1]
186	-91.08300018	-5.167999744	22.60099792	2.643073559	-5.360727787	51.18567657	1.0
187	-91.08300018	-5.167999744	22.60099792	2.643073559	-5.360714912	51.18568802	1.0
188	-91.08300018	-5.167999744	22.60099792	2.643073559	-5.360714436	51.18568039	1.0
189	-91.08300018	-5.167999744	22.60099792	2.643069744	-5.360714912	51.18567657	1.0
[RightHandIndex2]
186	-36.76399994	0	0	-4.042257309	-4.593084812	82.69343567	1.0
187	-36.76399994	0	0	-4.042263031	-4.593084335	82.6934433	1.0
188	-36.76399994	0	0	-4.042256832	-4.593078136	82.69345093	1.0
189	-36.76399994	0	0	-4.042260647	-4.593079567	82.69343567	1.0
[RightHandIndex3]
186	-28.83100128	0	0	-5.126283169	-4.603981495	96.15283203	1.0
187	-28.83100128	0	0	-5.126283646	-4.603969574	96.15283966	1.0
188	-28.83100128	0	0	-5.126285076	-4.603963852	96.1528244	1.0
189	-28.83100128	0	0	-5.126285076	-4.603963852	96.1528244	1.0
[RightHandIndex4]
186	-23.92700005	0	0	0	0	0	1.0
187	-23.92700005	0	0	0	0	0	1.0
188	-23.92700005	0	0	0	0	0	1.0
189	-23.92700005	0	0	0	0	0	1.0
[RightHandThumb1]
186	-24.64799881	-15.72700024	26.82600021	-2.388235331	10.16858864	-8.287017822	1.0
187	-24.64799881	-15.72700024	26.82600021	-2.388241768	10.16858292	-8.287024498	1.0
188	-24.64799881	-15.72700024	26.82600021	-2.388244867	10.16857719	-8.287028313	1.0
189	-24.64799881	-15.72700024	26.82600021	-2.388246775	10.16858578	-8.28703022	1.0
[RightHandThumb2]
186	-32.29800034	-18.64699936	18.64699936	7.070493698	-37.46694183	0.6013907194	1.0
187	-32.29800034	-18.64699936	18.64699936	7.07049799	-37.46694183	0.6013837457	1.0
188	-32.29800034	-18.64699936	18.64699936	7.070501804	-37.46693039	0.6013785005	1.0
189	-32.29800034	-18.64699936	18.64699936	7.070501804	-37.46693039	0.6013794541	1.0
[RightHandThumb3]
186	-26.52600098	-15.31399918	15.31399918	3.291620493	-34.4118576	-26.10050011	1.0
187	-26.52600098	-15.31399918	15.31399918	3.291628599	-34.41184998	-26.10049438	1.0
188	-26.52600098	-15.31399918	15.31399918	3.291629553	-34.4118576	-26.10048676	1.0
189	-26.52600098	-15.31399918	15.31399918	3.29163146	-34.4118576	-26.10049248	1.0
[RightHandThumb4]
186	-19.54599953	-11.28499985	11.28499985	0	0	0	1.0
187	-19.54599953	-11.28499985	11.28499985	0	0	0	1.0
188	-19.54599953	-11.28499985	11.28499985	0	0	0	1.0
189	-19.54599953	-11.28499985	11.28499985	0	0	0	1.0
[LeftUpLeg]
186	82.07800293	-67.51699829	-15.99599934	-13.32995605	16.06974792	21.33275986	1.0
187	82.07800293	-67.51699829	-15.99599934	-16.12093544	18.20930862	16.0782814	1.0
188	82.07800293	-67.51699829	-15.99599934	-16.85709	17.9689045	10.44910622	1.0
189	82.07800293	-67.51699829	-15.99599934	-16.83296776	15.44610023	6.831534863	1.0
[LeftLeg]
186	0	-443.7049866	2.845999956	27.67098236	7.166106701	4.0058074	1.0
187	0	-443.7049866	2.845999956	33.43740463	3.732914686	2.663491011	1.0
188	0	-443.7049866	2.845999956	35.60307693	3.073317051	2.765902758	1.0
189	0	-443.7049866	2.845999956	35.74804688	5.337342739	4.78463459	1.0
[LeftFoot]
186	0	-444.2789917	-29.8219986	-3.280016184	0.8319662213	-1.373878956	1.0
187	0	-444.2789917	-29.8219986	-5.048511028	-0.139143452	-6.305845261	1.0
188	0	-444.2789917	-29.8219986	-8.75417614	1.988218546	-8.815030098	1.0
189	0	-444.2789917	-29.8219986	-13.69932079	6.800973892	-8.508639336	1.0
[LeftToeBase]
186	0	-87.28699493	107.1060028	-2.422488451	-1.316342968e-05	-2.250975939e-07	1.0
187	0	-87.28699493	107.1060028	-2.340743542	-7.473492587e-06	-1.486778501e-06	1.0
188	0	-87.28699493	107.1060028	-2.84845686	-2.033628107e-06	-1.190346438e-06	1.0
189	0	-87.28699493	107.1060028	-4.55047226	0.001879928168	0.01191921905	1.0
[RightUpLeg]
186	-82.07800293	-67.51699829	-15.99599934	-39.25882339	-21.79395294	-11.79690933	1.0
187	-82.07800293	-67.51699829	-15.99599934	-24.93036842	-14.14767265	-13.28143787	1.0
188	-82.07800293	-67.51699829	-15.99599934	-14.73067665	-8.353892326	-13.0681982	1.0
189	-82.07800293	-67.51699829	-15.99599934	-9.23361969	-6.109107018	-11.43264866	1.0
[RightLeg]
186	0	-443.7049866	2.861999989	67.82977295	-2.054027081	-9.391975403	1.0
187	0	-443.7049866	2.861999989	41.13354492	-4.578326702	-5.860077381	1.0
188	0	-443.7049866	2.861999989	21.31365013	-7.239862919	-3.79580617	1.0
189	0	-443.7049866	2.861999989	14.09115601	-8.201421738	-3.238249779	1.0
[RightFoot]
186	0	-444.2770081	-29.83799934	14.28950977	-20.89453888	10.34069824	1.0
187	0	-444.2770081	-29.83799934	19.87737656	-16.69459534	14.96781445	1.0
188	0	-444.2770081	-29.83799934	24.94909477	-12.50046349	7.418321133	1.0
189	0	-444.2770081	-29.83799934	16.26876831	-11.66351223	5.303668022	1.0
[RightToeBase]
186	0	-87.28699493	107.1060028	3.905355692	-5.527091616e-06	-3.037053602e-06	1.0
187	0	-87.28699493	107.1060028	0.8856693506	-0.1017099619	-0.4023397565	1.0
188	0	-87.28699493	107.1060028	-12.26677513	1.106030703	4.375518322	1.0
189	0	-87.28699493	107.1060028	-17.4162674	1.106032848	4.375517368	1.0
[EndOfFile]
